<?xml version="1.0" encoding="iso-8859-1"?>
<!-- Generator: Adobe Illustrator 19.0.0, SVG Export Plug-In . SVG Version: 6.00 Build 0)  -->
<svg version="1.1" id="Layer_1" xmlns="http://www.w3.org/2000/svg" xmlns:xlink="http://www.w3.org/1999/xlink" x="0px" y="0px"
	 viewBox="0 0 485 485" style="enable-background:new 0 0 485 485;" xml:space="preserve">
<g>
	<path d="M204.235,334.302c8.256-2.17,15.627-5.503,22.044-10.048c6.366-4.505,11.532-10.343,15.326-17.546
		c3.758-7.113,5.64-15.574,5.64-25.399c0-12.122-2.881-22.46-8.766-31.101c-5.856-8.583-14.686-14.618-26.613-18.045
		c8.759-4.142,15.312-9.477,19.773-15.98c4.426-6.513,6.639-14.661,6.639-24.414c0-9.017-1.48-16.644-4.434-22.734
		c-3.025-6.182-7.249-11.09-12.645-14.78c-5.482-3.689-11.971-6.38-19.572-7.993c-7.645-1.656-16.008-2.458-25.277-2.458H85v193.759
		h93.915C187.595,337.564,196.074,336.472,204.235,334.302z M127.665,176.809h39.913c3.772,0,7.458,0.269,10.972,0.956
		c3.578,0.614,6.661,1.753,9.391,3.402c2.752,1.584,4.929,3.847,6.574,6.739c1.589,2.892,2.379,6.618,2.379,11.126
		c0,8.119-2.379,14.04-7.286,17.621c-4.957,3.639-11.216,5.432-18.774,5.432h-43.168V176.809z M127.665,304.563v-53.356h46.379
		c9.183,0,16.648,2.112,22.245,6.358c5.59,4.308,8.399,11.396,8.399,21.383c0,5.094-0.826,9.312-2.55,12.559
		c-1.717,3.276-4.081,5.852-6.934,7.731c-2.853,1.954-6.237,3.276-10.052,4.11c-3.758,0.841-7.753,1.214-11.963,1.214H127.665z"/>
	<path d="M279.111,320.797c6.272,6.517,13.73,11.518,22.654,15.085c8.931,3.524,18.875,5.313,29.926,5.313
		c15.857,0,29.466-3.632,40.624-10.921c11.287-7.257,19.564-19.313,25.018-36.202h-33.935c-1.315,4.343-4.713,8.525-10.296,12.437
		c-5.633,3.916-12.351,5.881-20.125,5.881c-10.807,0-19.148-2.834-24.917-8.471c-5.792-5.636-9.542-16.137-9.542-27.227h101.237
		c0.726-10.885-0.157-21.282-2.68-31.234c-2.544-9.969-6.611-18.857-12.33-26.628c-5.719-7.785-12.998-14.004-21.878-18.592
		c-8.91-4.652-19.307-6.937-31.176-6.937c-10.749,0-20.456,1.911-29.258,5.709c-8.802,3.811-16.36,9.031-22.733,15.645
		c-6.359,6.578-11.194,14.421-14.694,23.509c-3.427,9.057-5.18,18.857-5.18,29.348c0,10.849,1.689,20.861,5.037,29.905
		C268.247,306.51,272.996,314.249,279.111,320.797z M300.278,243.159c0.984-3.502,2.68-6.778,5.166-9.883
		c2.5-3.054,5.77-5.648,9.757-7.731c4.081-2.112,9.175-3.147,15.332-3.147c9.463,0,17.223,2.741,21.8,7.81
		c4.598,5.108,7.961,12.372,8.881,22.198h-62.697C298.697,249.669,299.287,246.572,300.278,243.159z"/>
	<rect x="290.636" y="156.802" width="78.54" height="19.12"/>
	<path d="M0,0v485h485V0H0z M455,455H30V30h425V455z"/>
</g>
<g>
</g>
<g>
</g>
<g>
</g>
<g>
</g>
<g>
</g>
<g>
</g>
<g>
</g>
<g>
</g>
<g>
</g>
<g>
</g>
<g>
</g>
<g>
</g>
<g>
</g>
<g>
</g>
<g>
</g>
</svg>
